<svg width="180" height="176" viewBox="0 0 180 176" fill="none" xmlns="http://www.w3.org/2000/svg">
<path d="M90 88C81.75 88 74.6875 85.1278 68.8125 79.3833C62.9375 73.6389 60 66.7333 60 58.6667C60 50.6 62.9375 43.6944 68.8125 37.95C74.6875 32.2055 81.75 29.3333 90 29.3333C98.25 29.3333 105.312 32.2055 111.187 37.95C117.062 43.6944 120 50.6 120 58.6667C120 66.7333 117.062 73.6389 111.187 79.3833C105.312 85.1278 98.25 88 90 88ZM30 146.667V126.133C30 121.978 31.095 118.157 33.285 114.671C35.475 111.186 38.38 108.528 42 106.7C49.75 102.911 57.625 100.068 65.625 98.1713C73.625 96.2744 81.75 95.3284 90 95.3333C98.25 95.3333 106.375 96.2818 114.375 98.1787C122.375 100.076 130.25 102.916 138 106.7C141.625 108.533 144.532 111.193 146.722 114.679C148.912 118.164 150.005 121.983 150 126.133V146.667H30Z" fill="#FDD18E"/>
</svg>
