<svg width="148" height="148" viewBox="0 0 148 148" fill="none" xmlns="http://www.w3.org/2000/svg">
<path d="M37 129.5C33.6083 129.5 30.7038 128.293 28.2865 125.88C25.8691 123.467 24.6625 120.562 24.6666 117.167V61.6667C24.6666 59.7139 25.1045 57.8639 25.9801 56.1167C26.8558 54.3694 28.0624 52.9306 29.6 51.8L66.6 24.05C67.7305 23.2278 68.9125 22.6111 70.1458 22.2C71.3791 21.7889 72.6639 21.5833 74 21.5833C75.3361 21.5833 76.6208 21.7889 77.8541 22.2C79.0875 22.6111 80.2694 23.2278 81.4 24.05L118.4 51.8C119.942 52.9306 121.15 54.3694 122.026 56.1167C122.902 57.8639 123.337 59.7139 123.333 61.6667V117.167C123.333 120.558 122.125 123.463 119.707 125.88C117.29 128.298 114.388 129.504 111 129.5H86.3333V86.3333H61.6666V129.5H37Z" fill="#FDD18E"/>
</svg>
