<svg width="148" height="148" viewBox="0 0 148 148" fill="none" xmlns="http://www.w3.org/2000/svg">
<path d="M24.6666 111H37V123.333H111V24.6667H37V37H24.6666V18.5C24.6666 16.8645 25.3163 15.296 26.4728 14.1395C27.6293 12.983 29.1978 12.3333 30.8333 12.3333H117.167C118.802 12.3333 120.371 12.983 121.527 14.1395C122.684 15.296 123.333 16.8645 123.333 18.5V129.5C123.333 131.136 122.684 132.704 121.527 133.86C120.371 135.017 118.802 135.667 117.167 135.667H30.8333C29.1978 135.667 27.6293 135.017 26.4728 133.86C25.3163 132.704 24.6666 131.136 24.6666 129.5V111ZM37 67.8333H80.1666V80.1667H37V98.6667L6.16663 74L37 49.3333V67.8333Z" fill="#FDD18E"/>
</svg>
