<svg width="148" height="148" viewBox="0 0 148 148" fill="none" xmlns="http://www.w3.org/2000/svg">
<mask id="mask0_13_9" style="mask-type:luminance" maskUnits="userSpaceOnUse" x="10" y="10" width="128" height="128">
<path d="M74 135.667C108.059 135.667 135.667 108.058 135.667 74C135.667 39.9415 108.059 12.3333 74 12.3333C39.9415 12.3333 12.3334 39.9415 12.3334 74C12.3334 108.058 39.9415 135.667 74 135.667Z" fill="white" stroke="white" stroke-width="4" stroke-linejoin="round"/>
<path d="M74 55.5C76.4533 55.5 78.806 54.5254 80.5407 52.7907C82.2754 51.056 83.25 48.7033 83.25 46.25C83.25 43.7967 82.2754 41.444 80.5407 39.7093C78.806 37.9745 76.4533 37 74 37C71.5467 37 69.194 37.9745 67.4593 39.7093C65.7245 41.444 64.75 43.7967 64.75 46.25C64.75 48.7033 65.7245 51.056 67.4593 52.7907C69.194 54.5254 71.5467 55.5 74 55.5ZM74 111C76.4533 111 78.806 110.025 80.5407 108.291C82.2754 106.556 83.25 104.203 83.25 101.75C83.25 99.2967 82.2754 96.944 80.5407 95.2093C78.806 93.4745 76.4533 92.5 74 92.5C71.5467 92.5 69.194 93.4745 67.4593 95.2093C65.7245 96.944 64.75 99.2967 64.75 101.75C64.75 104.203 65.7245 106.556 67.4593 108.291C69.194 110.025 71.5467 111 74 111ZM46.25 83.25C48.7033 83.25 51.056 82.2754 52.7907 80.5407C54.5254 78.806 55.5 76.4533 55.5 74C55.5 71.5467 54.5254 69.194 52.7907 67.4593C51.056 65.7245 48.7033 64.75 46.25 64.75C43.7967 64.75 41.444 65.7245 39.7093 67.4593C37.9745 69.194 37 71.5467 37 74C37 76.4533 37.9745 78.806 39.7093 80.5407C41.444 82.2754 43.7967 83.25 46.25 83.25ZM101.75 83.25C104.203 83.25 106.556 82.2754 108.291 80.5407C110.025 78.806 111 76.4533 111 74C111 71.5467 110.025 69.194 108.291 67.4593C106.556 65.7245 104.203 64.75 101.75 64.75C99.2967 64.75 96.944 65.7245 95.2093 67.4593C93.4745 69.194 92.5 71.5467 92.5 74C92.5 76.4533 93.4745 78.806 95.2093 80.5407C96.944 82.2754 99.2967 83.25 101.75 83.25Z" fill="black" stroke="black" stroke-width="4" stroke-linejoin="round"/>
<path d="M74 135.667H135.667" stroke="white" stroke-width="4" stroke-linecap="round"/>
</mask>
<g mask="url(#mask0_13_9)">
<path d="M0 0H148V148H0V0Z" fill="#FDD18E"/>
</g>
</svg>
